<?xml version="1.0" encoding="UTF-8" standalone="no"?>
<!-- Created with Inkscape (http://www.inkscape.org/) -->

<svg
   xmlns:dc="http://purl.org/dc/elements/1.1/"
   xmlns:cc="http://creativecommons.org/ns#"
   xmlns:rdf="http://www.w3.org/1999/02/22-rdf-syntax-ns#"
   xmlns:svg="http://www.w3.org/2000/svg"
   xmlns="http://www.w3.org/2000/svg"
   xmlns:sodipodi="http://sodipodi.sourceforge.net/DTD/sodipodi-0.dtd"
   xmlns:inkscape="http://www.inkscape.org/namespaces/inkscape"
   width="1000"
   height="600"
   viewBox="0 0 1000 599.99998"
   id="svg2"
   version="1.1"
   inkscape:version="0.48.5 r10040"
   sodipodi:docname="Flag_of_the_Philippine_Army.svg">
  <title
     id="title3365">Flag of the Philippine Army</title>
  <defs
     id="defs4" />
  <sodipodi:namedview
     id="base"
     pagecolor="#ffffff"
     bordercolor="#666666"
     borderopacity="1.0"
     inkscape:pageopacity="0.0"
     inkscape:pageshadow="2"
     inkscape:zoom="0.45546876"
     inkscape:cx="-234.19666"
     inkscape:cy="351.63916"
     inkscape:document-units="px"
     inkscape:current-layer="layer1"
     showgrid="false"
     fit-margin-top="0"
     fit-margin-left="0"
     fit-margin-right="0"
     fit-margin-bottom="0"
     inkscape:window-width="1366"
     inkscape:window-height="705"
     inkscape:window-x="-8"
     inkscape:window-y="-8"
     inkscape:window-maximized="1"
     units="px"
     showguides="true"
     inkscape:guide-bbox="true"
     inkscape:snap-object-midpoints="true"
     inkscape:snap-center="true" />
  <metadata
     id="metadata7">
    <rdf:RDF>
      <cc:Work
         rdf:about="">
        <dc:format>image/svg+xml</dc:format>
        <dc:type
           rdf:resource="http://purl.org/dc/dcmitype/StillImage" />
        <dc:title>Flag of the Philippine Army</dc:title>
        <cc:license
           rdf:resource="http://creativecommons.org/licenses/publicdomain/" />
      </cc:Work>
      <cc:License
         rdf:about="http://creativecommons.org/licenses/publicdomain/">
        <cc:permits
           rdf:resource="http://creativecommons.org/ns#Reproduction" />
        <cc:permits
           rdf:resource="http://creativecommons.org/ns#Distribution" />
        <cc:permits
           rdf:resource="http://creativecommons.org/ns#DerivativeWorks" />
      </cc:License>
    </rdf:RDF>
  </metadata>
  <g
     inkscape:label="Layer 1"
     inkscape:groupmode="layer"
     id="layer1"
     transform="translate(349.6727,-155.37318)">
    <rect
       style="opacity:1;fill:#0d400d;fill-opacity:1;stroke:none;stroke-width:1;stroke-miterlimit:4;stroke-dasharray:none;stroke-opacity:1"
       id="rect4291"
       width="1000"
       height="600"
       x="-349.6727"
       y="155.37318" />
    <g
       transform="matrix(0.36053711,0,0,0.36053711,55.911086,391.27975)"
       id="layer1-94"
       inkscape:label="Layer 1">
      <circle
         transform="matrix(0.71439429,0,0,0.71439429,-1812.2621,-207.44817)"
         r="714.33795"
         cy="533.78931"
         cx="2900.4297"
         id="path7081-6-8"
         style="fill:#fcd116;fill-opacity:1;stroke:#000000;stroke-width:13.05336475;stroke-linecap:round;stroke-linejoin:round;stroke-miterlimit:4;stroke-opacity:1;stroke-dasharray:none;stroke-dashoffset:0"
         sodipodi:cx="2900.4297"
         sodipodi:cy="533.78931"
         sodipodi:rx="714.33795"
         sodipodi:ry="714.33795"
         d="m 3614.7676,533.78931 c 0,394.51795 -319.82,714.33799 -714.3379,714.33799 -394.518,0 -714.338,-319.82004 -714.338,-714.33799 0,-394.51796 319.82,-714.33796 714.338,-714.33796 394.5179,0 714.3379,319.82 714.3379,714.33796 z" />
      <g
         transform="matrix(1.0078791,0,0,1.0078791,1.9739612,-5.3909484)"
         id="text4821"
         style="font-size:20px;font-style:normal;font-variant:normal;font-weight:normal;font-stretch:normal;text-align:center;line-height:0%;letter-spacing:0px;word-spacing:0px;writing-mode:lr-tb;text-anchor:middle;fill:#000000;fill-opacity:1;stroke:none;font-family:Gotham;-inkscape-font-specification:Gotham">
        <path
           inkscape:connector-curvature="0"
           id="path5072"
           style="font-size:90px;font-weight:bold;letter-spacing:20px;fill:#000000;stroke:#000000;stroke-width:5.5039134;stroke-miterlimit:4;stroke-opacity:1;font-family:Trajan Pro;-inkscape-font-specification:Trajan Pro Bold"
           d="m 149.22376,599.93437 c -0.95499,4.27096 -1.87538,8.1225 -2.76117,11.55464 -0.88583,3.43216 -1.64922,6.11886 -2.29016,8.06011 -0.40919,1.36196 -0.92092,2.34753 -1.5352,2.95672 -0.61432,0.60918 -1.63324,0.8984 -3.05675,0.86767 -0.96385,-0.0368 -2.24313,-0.18206 -3.83785,-0.43578 -1.59475,-0.25373 -2.70017,-0.45074 -3.31626,-0.59104 -0.18215,-0.0445 -0.35904,-0.0127 -0.53067,0.0954 -0.17166,0.10812 -0.29679,0.31376 -0.37542,0.61694 -0.0687,0.30166 0.0104,0.53969 0.23731,0.71408 0.22685,0.17439 0.58282,0.31544 1.06791,0.42316 2.95469,0.67975 5.91159,1.32535 8.87072,1.93681 2.95909,0.61145 5.01775,1.04689 6.17599,1.30633 1.22609,0.29842 3.11819,0.78732 5.67631,1.46671 2.55806,0.67937 5.52366,1.41944 8.89682,2.2202 0.47877,0.11779 0.84573,0.14588 1.10088,0.0843 0.25506,-0.0616 0.41694,-0.24328 0.48564,-0.54493 0.0603,-0.30746 0.0248,-0.5507 -0.10656,-0.72971 -0.13146,-0.17903 -0.2905,-0.28941 -0.4771,-0.33114 -0.46431,-0.11441 -1.33877,-0.37677 -2.62339,-0.78709 -1.28469,-0.41034 -2.29714,-0.7743 -3.03732,-1.0919 -1.2886,-0.60766 -2.07002,-1.33351 -2.34428,-2.17756 -0.27433,-0.84405 -0.29228,-1.96895 -0.0538,-3.37471 0.29588,-2.02197 0.82924,-4.76249 1.60006,-8.22156 0.77076,-3.45906 1.65829,-7.31829 2.66259,-11.57772 l 3.79305,-16.21197 c 1.60615,-6.76625 2.95386,-12.13148 4.04314,-16.0957 1.08918,-3.96411 1.69366,-6.15267 1.81344,-6.56568 0.11307,-0.45873 0.13378,-0.89292 0.0621,-1.30258 -0.0717,-0.40954 -0.29947,-0.67078 -0.68316,-0.78373 -0.35582,-0.0678 -0.75365,-0.0299 -1.19349,0.11359 -0.43994,0.14361 -0.89044,0.3078 -1.35149,0.49255 -1.41509,0.59784 -3.94171,1.57913 -7.57988,2.94388 -3.63825,1.36485 -7.0982,2.64812 -10.37987,3.84981 -3.28172,1.20178 -5.09531,1.85695 -5.44077,1.96549 -0.25941,0.0799 -0.50039,0.20456 -0.72293,0.37388 -0.22258,0.16943 -0.36939,0.3854 -0.44043,0.64794 -0.0505,0.27324 -0.0195,0.51927 0.093,0.7381 0.11245,0.21892 0.23994,0.34888 0.38248,0.38988 0.17793,0.0378 0.37999,0.0466 0.6062,0.0263 0.22616,-0.0202 0.46038,-0.0501 0.70267,-0.0898 1.28466,-0.24817 3.19884,-0.64374 5.74252,-1.18669 2.54364,-0.54286 4.34595,-0.75663 5.40697,-0.64131 0.62982,0.14742 0.9517,0.50001 0.96564,1.05779 0.0139,0.55788 -0.11588,1.35939 -0.38927,2.40452 -0.34773,1.48614 -0.74412,3.18036 -1.18917,5.08267 -0.44512,1.90239 -0.94403,4.03478 -1.49672,6.39716 z" />
        <path
           inkscape:connector-curvature="0"
           id="path5074"
           style="font-size:90px;font-weight:bold;letter-spacing:20px;fill:#000000;stroke:#000000;stroke-width:5.5039134;stroke-miterlimit:4;stroke-opacity:1;font-family:Trajan Pro;-inkscape-font-specification:Trajan Pro Bold"
           d="m 219.0488,639.72401 c 7.60123,0.37533 13.59423,-1.20296 17.97904,-4.73489 4.38472,-3.53192 6.79714,-8.02848 7.23728,-13.48968 0.11116,-5.51481 -1.50593,-9.96918 -4.85126,-13.36312 -3.34542,-3.39389 -6.69415,-6.03237 -10.04621,-7.91546 2.7763,-0.73345 5.72355,-2.35699 8.84175,-4.87062 3.11811,-2.51355 4.96608,-6.11065 5.54392,-10.79131 0.23155,-4.38768 -1.22462,-7.88688 -4.36853,-10.49759 -3.144,-2.6106 -7.49406,-4.12903 -13.0502,-4.55531 -7.5802,-0.30233 -13.16494,1.13979 -16.75424,4.32637 -3.58933,3.18669 -5.4843,6.6526 -5.6849,10.39774 -0.19422,3.78705 0.81395,7.08497 3.0245,9.89377 2.21053,2.80888 5.14892,5.29766 8.81518,7.46635 -4.62294,1.42459 -8.64649,3.69286 -12.07067,6.80483 -3.4242,3.11202 -5.38661,7.15207 -5.88724,12.12016 -0.29009,5.57158 1.49557,10.03426 5.35701,13.38807 3.86142,3.35381 9.16627,5.29404 15.91457,5.82069 z m -11.08912,-19.02072 c 0.46486,-4.5477 1.88937,-8.16386 4.27352,-10.84848 2.38412,-2.68457 4.90636,-4.62052 7.56673,-5.80786 3.96804,2.52122 7.32051,5.21261 10.05741,8.07416 2.73682,2.86161 4.01477,6.48714 3.83383,10.8766 -0.38909,4.17157 -1.8592,7.37467 -4.41032,9.60931 -2.5512,2.23465 -5.62389,3.24767 -9.21809,3.03907 -3.72128,-0.35116 -6.7189,-1.90806 -8.99289,-4.67069 -2.27403,-2.76263 -3.31076,-6.18666 -3.11019,-10.27211 z m 26.22027,-36.01809 c -0.52381,4.45144 -1.89934,7.64628 -4.12659,9.58452 -2.22732,1.93833 -4.11219,3.11163 -5.65463,3.51991 -3.91533,-2.52301 -6.78508,-4.9204 -8.60924,-7.19219 -1.82422,-2.2717 -2.63404,-4.76966 -2.42947,-7.4939 0.15735,-2.64292 1.17789,-4.97593 3.06163,-6.99904 1.8837,-2.02298 4.76668,-2.95937 8.64897,-2.80915 2.7661,0.22265 5.01787,1.32761 6.75532,3.31487 1.73738,1.98738 2.52205,4.67904 2.35401,8.07498 z" />
        <path
           inkscape:connector-curvature="0"
           id="path5076"
           style="font-size:90px;font-weight:bold;letter-spacing:20px;fill:#000000;stroke:#000000;stroke-width:5.5039134;stroke-miterlimit:4;stroke-opacity:1;font-family:Trajan Pro;-inkscape-font-specification:Trajan Pro Bold"
           d="m 287.65517,568.989 c -6.98881,0.70839 -12.37401,3.14907 -16.15563,7.32205 -3.78164,4.17311 -5.45728,9.34715 -5.02695,15.52212 0.29629,4.0206 2.05605,7.72492 5.27928,11.11297 3.22322,3.38814 8.05138,4.93509 14.48449,4.64087 2.33172,-0.19611 4.52232,-0.72462 6.57182,-1.58554 2.04944,-0.86085 3.68781,-2.04246 4.91509,-3.54484 0.0884,-0.11097 0.17253,-0.27242 0.25241,-0.48435 0.0798,-0.21185 0.11722,-0.39191 0.1122,-0.54017 -0.027,-0.22912 -0.11794,-0.41334 -0.27275,-0.55265 -0.15487,-0.13923 -0.32594,-0.20373 -0.51321,-0.19351 -0.1694,0.0219 -0.38161,0.13782 -0.63661,0.34762 -0.25506,0.20987 -0.61277,0.47358 -1.07313,0.79114 -0.54418,0.3285 -1.29295,0.64048 -2.24633,0.93593 -0.95343,0.29552 -2.20684,0.51487 -3.76025,0.65806 -1.10333,0.13889 -2.62383,-0.18359 -4.56151,-0.96746 -1.93771,-0.78379 -3.77076,-2.34424 -5.49914,-4.68137 -1.7284,-2.33705 -2.83029,-5.76606 -3.30566,-10.28704 -0.28567,-3.89531 0.43073,-7.15885 2.14917,-9.79061 1.71843,-2.63163 4.21082,-4.12664 7.47719,-4.48502 3.58556,-0.34396 6.87565,1.21696 9.8703,4.68274 2.99458,3.46591 4.89541,9.14158 5.7025,17.02704 0.4853,7.08039 -0.30334,13.49783 -2.36594,19.25236 -2.06265,5.75457 -4.71661,10.69124 -7.96186,14.81001 -3.24529,4.1188 -6.39924,7.26471 -9.46183,9.43775 -0.22563,0.20169 -0.44231,0.44214 -0.65003,0.72134 -0.20776,0.2792 -0.30663,0.57739 -0.29661,0.89455 0.031,0.23258 0.13816,0.43047 0.32138,0.59367 0.1832,0.16321 0.37049,0.24139 0.56186,0.23454 0.35324,-0.0281 0.65368,-0.08 0.90131,-0.15557 0.24759,-0.0756 0.47506,-0.18901 0.6824,-0.34021 3.76129,-2.07348 8.02256,-5.35024 12.78382,-9.83027 4.76121,-4.48002 8.81074,-10.01359 12.14862,-16.60072 3.3378,-6.58708 4.75229,-14.07798 4.24346,-22.47274 -0.62083,-6.97735 -3.05002,-12.58181 -7.28759,-16.8134 -4.23763,-4.23145 -10.03172,-6.11788 -17.38227,-5.65929 z" />
        <path
           inkscape:connector-curvature="0"
           id="path5078"
           style="font-size:90px;font-weight:bold;letter-spacing:20px;fill:#000000;stroke:#000000;stroke-width:5.5039134;stroke-miterlimit:4;stroke-opacity:1;font-family:Trajan Pro;-inkscape-font-specification:Trajan Pro Bold"
           d="m 344.20343,561.71206 c -4.51846,1.08265 -7.61183,1.6957 -9.2801,1.83914 -1.66826,0.14358 -2.57789,0.21475 -2.72887,0.2135 -0.26658,0.0624 -0.4542,0.20937 -0.56284,0.44104 -0.10863,0.2318 -0.11103,0.56467 -0.007,0.99861 0.0811,0.39608 0.24777,1.55217 0.50001,3.46829 0.25226,1.91624 0.53702,3.96344 0.85429,6.14162 0.31728,2.17828 0.61401,3.85847 0.89017,5.04058 0.0993,0.43906 0.2206,0.75668 0.36395,0.95288 0.14337,0.1963 0.36336,0.25762 0.65998,0.18396 0.25933,-0.0682 0.43422,-0.21974 0.52467,-0.45474 0.0905,-0.23489 0.1128,-0.53408 0.067,-0.89755 -0.0914,-0.78865 -0.0132,-1.78168 0.2344,-2.97911 0.24767,-1.19732 0.69687,-2.18971 1.34763,-2.97716 0.93845,-0.95145 2.15488,-1.71694 3.64929,-2.29646 1.4944,-0.57941 2.88488,-1.01717 4.17144,-1.3133 l 22.62358,-5.61386 c -2.36246,7.8769 -4.4337,15.88925 -6.2137,24.03707 -1.78005,8.14791 -3.18884,15.5082 -4.22637,22.08088 -1.03756,6.57273 -1.62383,11.43475 -1.75881,14.58609 -0.0414,0.75982 -0.0335,1.46106 0.0236,2.10371 0.0571,0.64267 0.14161,1.18578 0.25363,1.62935 0.0871,0.38988 0.23851,0.64207 0.45433,0.75659 0.21579,0.11452 0.55868,0.11058 1.02867,-0.0118 2.15027,-0.65335 4.30977,-1.90013 6.47853,-3.74035 2.16871,-1.8402 3.23716,-3.27989 3.20535,-4.31905 -0.14461,-0.53594 -0.28927,-1.0255 -0.43399,-1.46869 -0.14477,-0.44317 -0.26743,-1.03092 -0.36799,-1.76326 -0.34832,-3.01319 -0.3445,-7.27577 0.0115,-12.78775 0.3559,-5.51193 0.95747,-11.45285 1.8047,-17.82278 0.84717,-6.36985 1.83352,-12.34829 2.95905,-17.93536 1.12547,-5.58694 2.28364,-9.9621 3.47451,-13.12548 0.094,-0.22032 0.16909,-0.49395 0.22517,-0.82089 0.056,-0.32679 0.0547,-0.62783 -0.004,-0.90314 -0.0383,-0.22418 -0.22269,-0.36001 -0.55318,-0.40751 -0.33055,-0.0473 -0.90276,0.029 -1.71662,0.22892 z" />
      </g>
      <circle
         transform="matrix(0.71439429,0,0,0.71439429,-1812.2621,-207.44817)"
         r="487.01974"
         cy="537.95404"
         cx="2898.2402"
         id="path7081-8"
         style="fill:#ffffff;fill-opacity:1;stroke:#000000;stroke-width:13.05336475;stroke-linecap:round;stroke-linejoin:round;stroke-miterlimit:4;stroke-opacity:1;stroke-dasharray:none;stroke-dashoffset:0"
         sodipodi:cx="2898.2402"
         sodipodi:cy="537.95404"
         sodipodi:rx="487.01974"
         sodipodi:ry="487.01974"
         d="m 3385.26,537.95404 c 0,268.97358 -218.0462,487.01976 -487.0198,487.01976 -268.9735,0 -487.0197,-218.04618 -487.0197,-487.01976 0,-268.97358 218.0462,-487.019744 487.0197,-487.019744 268.9736,0 487.0198,218.046164 487.0198,487.019744 z" />
      <path
         transform="matrix(0.71439429,0,0,0.71439429,-1812.2621,-207.44817)"
         d="m 2382.0964,783.95099 a 575.74786,576.29071 0 1 1 998.377,77.82375 L 2903.3528,539.22638 z"
         sodipodi:end="6.8772058"
         sodipodi:start="2.7030121"
         sodipodi:ry="576.29071"
         sodipodi:rx="575.74786"
         sodipodi:cy="539.22638"
         sodipodi:cx="2903.3528"
         sodipodi:type="arc"
         id="path7098-2"
         style="fill:none;stroke:none" />
      <path
         transform="matrix(-0.71439429,0,0,0.71439429,-1812.2621,-207.44817)"
         d="m -2726.9751,1189.5003 a 669.03815,662.48602 0 0 1 -502.3432,-66.0834"
         sodipodi:open="true"
         sodipodi:end="2.0912876"
         sodipodi:start="1.3144609"
         sodipodi:ry="662.48602"
         sodipodi:rx="669.03815"
         sodipodi:cy="548.66058"
         sodipodi:cx="-2896.6013"
         sodipodi:type="arc"
         id="path7107-4"
         style="fill:none;stroke:none" />
      <circle
         transform="matrix(0.71439429,0,0,0.71439429,-1753.8051,-165.11724)"
         r="34.603477"
         cy="1006.4501"
         cx="2506.6931"
         id="path7116-5"
         style="fill:#000000;fill-opacity:1;stroke:none"
         sodipodi:cx="2506.6931"
         sodipodi:cy="1006.4501"
         sodipodi:rx="34.603477"
         sodipodi:ry="34.603477"
         d="m 2541.2966,1006.4501 c 0,19.1109 -15.4925,34.6035 -34.6035,34.6035 -19.111,0 -34.6035,-15.4926 -34.6035,-34.6035 0,-19.111 15.4925,-34.6035 34.6035,-34.6035 19.111,0 34.6035,15.4925 34.6035,34.6035 z" />
      <circle
         transform="matrix(0.71439429,0,0,0.71439429,-1858.6245,-167.9)"
         r="34.603477"
         cy="1010.3456"
         cx="3286.3132"
         id="path7116-1-5"
         style="fill:#000000;fill-opacity:1;stroke:none"
         sodipodi:cx="3286.3132"
         sodipodi:cy="1010.3456"
         sodipodi:rx="34.603477"
         sodipodi:ry="34.603477"
         d="m 3320.9167,1010.3456 c 0,19.111 -15.4925,34.6035 -34.6035,34.6035 -19.1109,0 -34.6034,-15.4925 -34.6034,-34.6035 0,-19.11099 15.4925,-34.6035 34.6034,-34.6035 19.111,0 34.6035,15.49251 34.6035,34.6035 z" />
      <g
         id="g31465-3-1"
         transform="matrix(0.58268842,0,0,0.58268842,980.41556,209.87909)">
        <path
           style="fill:#132e04;fill-opacity:1;stroke:#b5840e;stroke-width:14.68503571;stroke-miterlimit:4;stroke-opacity:1;stroke-dasharray:none"
           d="m -1657.8534,-438.18868 834.77209,0 0,722.23751 -417.38589,227.78209 -417.3862,-227.78209 z"
           id="rect8723-9-6-7"
           inkscape:connector-curvature="0"
           sodipodi:nodetypes="cccccc" />
        <path
           inkscape:connector-curvature="0"
           style="fill:#d41c24;fill-opacity:1;stroke:#c49a18;stroke-width:11.9721365;stroke-miterlimit:4;stroke-opacity:1;stroke-dasharray:none"
           id="path279-1-9-4-1"
           d="m -845.15091,270.14485 -790.71659,0 395.3579,-684.12053 z"
           sodipodi:nodetypes="cccc" />
        <g
           transform="matrix(0.10943529,0,0,0.10943529,-1011.4577,-449.01589)"
           id="g44664-7-9-9-8-1">
          <path
             style="fill:#d19e03;fill-opacity:1;fill-rule:evenodd;stroke:none"
             d="m -2089.5005,1686.738 0,-554.9526 -126.3924,380.5768 z"
             id="path44609-4-2-6-1-5"
             inkscape:connector-curvature="0" />
          <g
             id="g44617-5-7-2-0-2">
            <path
               inkscape:transform-center-x="-96.760227"
               transform="matrix(0.91413384,0.40541251,-0.40541251,0.91413384,548.8004,1042.0512)"
               inkscape:transform-center-y="-183.22171"
               d="m -1664.4788,1938.5412 -397.4059,-83.0655 -204.1867,350.9118 -43.8052,-403.6241 -396.8341,-85.7554 370.3328,-166.3879 -41.0703,-403.9116 272.6835,300.7907 371.4513,-163.8757 -201.8052,352.2869 z"
               inkscape:randomized="0"
               inkscape:rounded="0"
               inkscape:flatsided="false"
               sodipodi:arg2="1.1519173"
               sodipodi:arg1="0.52359878"
               sodipodi:r2="215.66734"
               sodipodi:r1="560.17493"
               sodipodi:cy="1658.4537"
               sodipodi:cx="-2149.6045"
               sodipodi:sides="5"
               id="path44603-0-7-8-7-7"
               style="fill:#fcd116;fill-opacity:1;stroke:none"
               sodipodi:type="star" />
            <path
               style="fill:#d19e03;fill-opacity:1;fill-rule:evenodd;stroke:none"
               d="m -2089.5005,1686.738 0,-554.9526 -126.3924,380.5768 z"
               id="path44611-0-1-9-1-6"
               inkscape:connector-curvature="0" />
          </g>
          <path
             style="fill:#d19e03;fill-opacity:1;fill-rule:evenodd;stroke:none"
             d="m -2089.6993,1686.5223 527.3451,-172.8568 -401.0128,-1.5626 z"
             id="path44611-7-4-9-5-4-1"
             inkscape:connector-curvature="0" />
          <path
             inkscape:connector-curvature="0"
             id="path44645-9-9-7-6-4"
             d="m -2089.485,1686.1041 327.1403,448.2761 -122.2506,-381.9273 z"
             style="fill:#d19e03;fill-opacity:1;fill-rule:evenodd;stroke:none" />
          <path
             inkscape:connector-curvature="0"
             id="path44645-1-2-2-9-9-2"
             d="m -2088.8098,1686.2897 -527.9496,-171.0018 323.1124,237.5125 z"
             style="fill:#d19e03;fill-opacity:1;fill-rule:evenodd;stroke:none" />
          <path
             style="fill:#d19e03;fill-opacity:1;fill-rule:evenodd;stroke:none"
             d="m -2089.2443,1685.5418 -325.6446,449.3639 325.6657,-233.9991 z"
             id="path44662-9-4-6-0-3"
             inkscape:connector-curvature="0" />
        </g>
        <g
           id="g47260-0-4-3-2"
           transform="matrix(0.10029888,-0.04377467,0.04377467,0.10029888,-838.24787,-65.637418)">
          <path
             inkscape:connector-curvature="0"
             id="path47262-7-1-8-2"
             d="m -2089.5005,1686.738 0,-554.9526 -126.3924,380.5768 z"
             style="fill:#d19e03;fill-opacity:1;fill-rule:evenodd;stroke:none" />
          <g
             id="g47264-7-0-1-1">
            <path
               sodipodi:type="star"
               style="fill:#fcd116;fill-opacity:1;stroke:none"
               id="path47266-8-0-8-6"
               sodipodi:sides="5"
               sodipodi:cx="-2149.6045"
               sodipodi:cy="1658.4537"
               sodipodi:r1="560.17493"
               sodipodi:r2="215.66734"
               sodipodi:arg1="0.52359878"
               sodipodi:arg2="1.1519173"
               inkscape:flatsided="false"
               inkscape:rounded="0"
               inkscape:randomized="0"
               d="m -1664.4788,1938.5412 -397.4059,-83.0655 -204.1867,350.9118 -43.8052,-403.6241 -396.8341,-85.7554 370.3328,-166.3879 -41.0703,-403.9116 272.6835,300.7907 371.4513,-163.8757 -201.8052,352.2869 z"
               inkscape:transform-center-y="-183.22171"
               transform="matrix(0.91413384,0.40541251,-0.40541251,0.91413384,548.8004,1042.0512)"
               inkscape:transform-center-x="-96.760227" />
            <path
               inkscape:connector-curvature="0"
               id="path47268-8-0-6-8"
               d="m -2089.5005,1686.738 0,-554.9526 -126.3924,380.5768 z"
               style="fill:#d19e03;fill-opacity:1;fill-rule:evenodd;stroke:none" />
          </g>
          <path
             inkscape:connector-curvature="0"
             id="path47270-7-8-3-5"
             d="m -2089.6993,1686.5223 527.3451,-172.8568 -401.0128,-1.5626 z"
             style="fill:#d19e03;fill-opacity:1;fill-rule:evenodd;stroke:none" />
          <path
             style="fill:#d19e03;fill-opacity:1;fill-rule:evenodd;stroke:none"
             d="m -2089.485,1686.1041 327.1403,448.2761 -122.2506,-381.9273 z"
             id="path47272-2-9-4-7"
             inkscape:connector-curvature="0" />
          <path
             style="fill:#d19e03;fill-opacity:1;fill-rule:evenodd;stroke:none"
             d="m -2088.8098,1686.2897 -527.9496,-171.0018 323.1124,237.5125 z"
             id="path47274-6-3-1-6"
             inkscape:connector-curvature="0" />
          <path
             inkscape:connector-curvature="0"
             id="path47276-1-1-8-1"
             d="m -2089.2443,1685.5418 -325.6446,449.3639 325.6657,-233.9991 z"
             style="fill:#d19e03;fill-opacity:1;fill-rule:evenodd;stroke:none" />
        </g>
        <g
           transform="matrix(-0.10029888,-0.04377467,-0.04377467,0.10029888,-1641.1139,-65.637418)"
           id="g47278-0-7-2-8">
          <path
             style="fill:#d19e03;fill-opacity:1;fill-rule:evenodd;stroke:none"
             d="m -2089.5005,1686.738 0,-554.9526 -126.3924,380.5768 z"
             id="path47280-8-3-2-9"
             inkscape:connector-curvature="0" />
          <g
             id="g47282-3-8-5-2">
            <path
               inkscape:transform-center-x="-96.760227"
               transform="matrix(0.91413384,0.40541251,-0.40541251,0.91413384,548.8004,1042.0512)"
               inkscape:transform-center-y="-183.22171"
               d="m -1664.4788,1938.5412 -397.4059,-83.0655 -204.1867,350.9118 -43.8052,-403.6241 -396.8341,-85.7554 370.3328,-166.3879 -41.0703,-403.9116 272.6835,300.7907 371.4513,-163.8757 -201.8052,352.2869 z"
               inkscape:randomized="0"
               inkscape:rounded="0"
               inkscape:flatsided="false"
               sodipodi:arg2="1.1519173"
               sodipodi:arg1="0.52359878"
               sodipodi:r2="215.66734"
               sodipodi:r1="560.17493"
               sodipodi:cy="1658.4537"
               sodipodi:cx="-2149.6045"
               sodipodi:sides="5"
               id="path47284-8-8-4-7"
               style="fill:#fcd116;fill-opacity:1;stroke:none"
               sodipodi:type="star" />
            <path
               style="fill:#d19e03;fill-opacity:1;fill-rule:evenodd;stroke:none"
               d="m -2089.5005,1686.738 0,-554.9526 -126.3924,380.5768 z"
               id="path47286-8-1-6-9"
               inkscape:connector-curvature="0" />
          </g>
          <path
             style="fill:#d19e03;fill-opacity:1;fill-rule:evenodd;stroke:none"
             d="m -2089.6993,1686.5223 527.3451,-172.8568 -401.0128,-1.5626 z"
             id="path47288-7-6-4-5"
             inkscape:connector-curvature="0" />
          <path
             inkscape:connector-curvature="0"
             id="path47290-0-7-0-4"
             d="m -2089.485,1686.1041 327.1403,448.2761 -122.2506,-381.9273 z"
             style="fill:#d19e03;fill-opacity:1;fill-rule:evenodd;stroke:none" />
          <path
             inkscape:connector-curvature="0"
             id="path47292-1-4-8-3"
             d="m -2088.8098,1686.2897 -527.9496,-171.0018 323.1124,237.5125 z"
             style="fill:#d19e03;fill-opacity:1;fill-rule:evenodd;stroke:none" />
          <path
             style="fill:#d19e03;fill-opacity:1;fill-rule:evenodd;stroke:none"
             d="m -2089.2443,1685.5418 -325.6446,449.3639 325.6657,-233.9991 z"
             id="path47294-1-8-5-1"
             inkscape:connector-curvature="0" />
        </g>
        <g
           id="g31364-0-2"
           transform="matrix(0.26123251,0,0,0.26123251,-742.05677,-263.70233)">
          <g
             transform="matrix(1.313471,0,0,1.313471,7234.5968,3868.1683)"
             id="g38864-2-8-3">
            <path
               inkscape:connector-curvature="0"
               id="path38682-0-3-3"
               transform="matrix(17.004482,0,0,17.004482,-13071.293,-7279.3577)"
               d="m 359.75391,274.70508 -4.08008,4.04492 2.58594,12.42969 a 16.274984,16.274984 0 0 0 -0.87696,0.10547 l -2.45508,-11.79493 -1.0957,1.08594 2.80664,10.83789 a 16.274984,16.274984 0 0 0 -6.0039,2.50391 l -5.6875,-9.66211 -1.40235,0.006 6.57227,10.02734 a 16.274984,16.274984 0 0 0 -0.70117,0.53906 l -6.92383,-10.5625 -5.88477,0.0274 -0.0254,5.74609 10.64063,6.97461 a 16.274984,16.274984 0 0 0 -0.53516,0.70313 l -10.10938,-6.62696 -0.008,1.54297 9.67578,5.69336 a 16.274984,16.274984 0 0 0 -2.45898,6.01172 l -10.89649,-2.82227 -0.98828,0.9961 11.79102,2.45508 a 16.274984,16.274984 0 0 0 -0.12305,0.875 l -12.4082,-2.58203 -4.14258,4.17968 4.04492,4.08203 12.51758,-2.60546 a 16.274984,16.274984 0 0 0 0.10742,0.87695 l -11.88476,2.47461 1.08593,1.0957 10.92774,-2.83008 a 16.274984,16.274984 0 0 0 2.50195,5.97657 l -9.75,5.73828 0.008,1.54101 10.17774,-6.67187 a 16.274984,16.274984 0 0 0 0.55078,0.69531 l -10.72461,7.0293 0.0254,5.74609 5.88477,0.0254 6.98047,-10.65039 a 16.274984,16.274984 0 0 0 0.70507,0.53516 l -6.63281,10.11914 1.40235,0.006 5.74218,-9.75391 a 16.274984,16.274984 0 0 0 4.83594,2.19336 c 0.22541,0.0626 0.44751,0.13466 0.67578,0.1875 l 0.46485,0.10742 -2.83399,10.94531 1.0957,1.08789 2.48438,-11.9375 a 16.274984,16.274984 0 0 0 0.875,0.11915 l -2.61328,12.55859 4.08008,4.04492 4.18164,-4.14453 -2.59766,-12.47852 a 16.274984,16.274984 0 0 0 0.87891,-0.10546 l 2.46484,11.84375 0.99609,-0.98829 -2.82812,-10.91796 0.4707,-0.10352 c 1.81578,-0.40513 3.54724,-1.11929 5.1211,-2.11133 l 0.40625,-0.25586 5.71484,9.70899 1.54102,-0.006 -6.66993,-10.17578 a 16.274984,16.274984 0 0 0 0.70118,-0.54102 l 7.02148,10.71289 5.74609,-0.0254 0.0254,-5.88672 -10.62109,-6.96289 a 16.274984,16.274984 0 0 0 0.5332,-0.70312 l 10.0918,6.61523 0.008,-1.40234 -9.68164,-5.69922 0.25586,-0.4043 c 0.77513,-1.22894 1.37357,-2.55668 1.79492,-3.94336 a 16.274984,16.274984 0 0 0 0.0488,-0.18359 c 0.0968,-0.33249 0.19405,-0.66515 0.26953,-1.00391 l 0.0918,-0.41015 0.0137,-0.0605 10.88672,2.82031 1.08594,-1.0957 -11.86328,-2.46875 a 16.274984,16.274984 0 0 0 0.125,-0.875 l 12.47851,2.59765 4.04492,-4.08203 -4.14453,-4.17968 -12.39062,2.57812 a 16.274984,16.274984 0 0 0 -0.10547,-0.87891 l 11.75586,-2.44726 -0.98633,-0.9961 -10.87305,2.81641 a 16.274984,16.274984 0 0 0 -2.46679,-6.01367 l 9.66015,-5.68555 -0.008,-1.40234 -10.02344,6.57031 a 16.274984,16.274984 0 0 0 -0.53125,-0.70703 l 10.55078,-6.91602 -0.0254,-5.88476 -5.74609,-0.0254 -6.95703,10.61328 a 16.274984,16.274984 0 0 0 -0.70313,-0.53516 l 6.60743,-10.08398 -1.54102,-0.006 -5.67383,9.63867 a 16.274984,16.274984 0 0 0 -6.01367,-2.49414 l 2.80273,-10.82422 -0.99609,-0.98828 -2.4375,11.7168 a 16.274984,16.274984 0 0 0 -0.875,-0.13086 l 2.56641,-12.32617 -4.18164,-4.14258 z"
               style="fill:#fcd116;fill-opacity:1;stroke:none" />
            <g
               id="g38740-0-5-4">
              <g
                 transform="translate(-3.2764465e-6,-1.6513213e-5)"
                 id="g38726-7-1-1" />
            </g>
            <g
               id="g38746-0-3-1"
               transform="matrix(1,0,0,-1,0,-4103.0046)">
              <g
                 id="g38748-1-9-3"
                 transform="translate(-3.2764465e-6,-1.6513213e-5)" />
            </g>
            <g
               id="g38756-58-1-8"
               transform="matrix(0,-1,1,0,-4902.35,-9005.3546)">
              <g
                 id="g38758-5-8-7"
                 transform="translate(-3.2764465e-6,-1.6513213e-5)" />
            </g>
            <g
               transform="matrix(0,-1,-1,0,-9005.3546,-9005.3546)"
               id="g38766-4-0-4">
              <g
                 transform="translate(-3.2764465e-6,-1.6513213e-5)"
                 id="g38768-0-6-2" />
            </g>
            <g
               id="g38816-0-9-7">
              <g
                 transform="matrix(0.70710678,0.70710678,-0.70710678,0.70710678,-3487.3674,4316.245)"
                 id="g38776-9-6-7">
                <g
                   transform="translate(-3.2764465e-6,-1.6513213e-5)"
                   id="g38778-6-0-9" />
              </g>
              <g
                 id="g38786-4-4-3"
                 transform="matrix(0.70710678,0.70710678,0.70710678,-0.70710678,-586.10498,1414.9826)">
                <g
                   id="g38788-9-9-1"
                   transform="translate(-3.2764465e-6,-1.6513213e-5)" />
              </g>
              <g
                 id="g38796-4-2-9"
                 transform="matrix(0.70710678,-0.70710678,0.70710678,0.70710678,-586.10498,-5517.9872)">
                <g
                   id="g38798-52-3-8"
                   transform="translate(-3.2764465e-6,-1.6513213e-5)" />
              </g>
              <g
                 transform="matrix(0.70710678,-0.70710678,-0.70710678,-0.70710678,-3487.3674,-8419.2496)"
                 id="g38806-9-7-6">
                <g
                   transform="translate(-3.2764465e-6,-1.6513213e-5)"
                   id="g38808-6-5-5" />
              </g>
            </g>
          </g>
          <path
             sodipodi:nodetypes="ccccccccssccccccccc"
             id="path2457-2-0-3-0-5-9-4-8-0"
             d="m -1864.8161,1336.9535 c 63.919,-10.7146 117.8593,-18.6596 171.7105,-8.1458 -24.6785,-53.6065 -114.242,-59.8239 -134.4463,-55.6574 l -49.8905,11.2099 0,-117.4437 0,-117.4439 62.4076,-8.5833 c 41.8313,-5.3029 73.0088,-11.2335 124.7382,1.1461 -18.5836,-23.662 -24.7957,-29.9479 -51.6283,-45.07774 -29.5326,-16.65073 -47.4574,-15.73363 -173.1859,8.86134 -77.1351,15.0889 -116.9295,26.2904 -146.0016,23.0858 -25.9391,-3.5667 -34.715,-10.9589 -40.4054,-14.9201 4.6858,61.6478 90.9283,66.4149 123.6681,59.6412 l 49.8905,-11.2101 0,117.4439 0,117.4436 -62.4075,8.5834 c -39.6366,5.108 -95.7895,2.0782 -113.5323,-3.6645 41.8389,95.1697 217.5771,39.3476 239.0829,34.7313 z"
             style="fill:#282828;fill-opacity:1;stroke:none"
             inkscape:connector-curvature="0" />
        </g>
      </g>
      <g
         transform="matrix(0.72065299,0,0,0.72065299,-1834.3807,-206.46378)"
         id="text17798-2"
         style="font-size:180px;font-style:normal;font-variant:normal;font-weight:normal;font-stretch:normal;text-align:center;line-height:125%;letter-spacing:4px;word-spacing:0px;text-anchor:middle;fill:#000000;fill-opacity:1;stroke:none;font-family:Times New Roman;-inkscape-font-specification:'Times New Roman, '" />
      <g
         transform="matrix(0.04332051,0,0,0.04332051,-1868.1268,-81.484169)"
         id="g5381" />
      <g
         transform="matrix(1.0078791,0,0,1.0078791,1.9739612,-5.3909484)"
         id="text3755"
         style="font-size:90px;font-style:normal;font-variant:normal;font-weight:normal;font-stretch:normal;text-align:center;line-height:0%;letter-spacing:2px;word-spacing:5px;writing-mode:lr-tb;text-anchor:middle;fill:#000000;fill-opacity:1;stroke:none;font-family:BARABARA-FINAL;-inkscape-font-specification:BARABARA-FINAL">
        <path
           inkscape:connector-curvature="0"
           id="path5021"
           style="font-size:85px;letter-spacing:8px;word-spacing:8px"
           d="m -107.30805,448.91954 c -3.81463,2.94 -8.20114,3.97799 -13.15956,3.11397 -4.95824,-0.86403 -9.04623,-3.38352 -12.26397,-7.55846 l 50.2925,-38.76055 c 3.859957,-2.9748 8.269338,-4.02986 13.228157,-3.16519 4.958897,0.86475 9.046617,3.38389 12.263172,7.55743 l -25.450329,19.61463 13.439036,17.43739 11.58178,-8.92611 c 3.859932,-2.97482 8.277759,-4.01893 13.253493,-3.13232 4.975762,0.88664 9.055037,3.39483 12.237837,7.52456 l -37.095803,28.58983 c -0.469962,0.5063 -0.974115,0.9669 -1.51246,1.3818 l -0.10451,-0.1356 -11.647527,8.97677 c -3.814651,2.93997 -8.201432,3.97762 -13.160355,3.11294 -4.958791,-0.86475 -9.046511,-3.38389 -12.263171,-7.55743 l 25.448274,-19.61305 -13.439037,-17.43739 z" />
        <path
           inkscape:connector-curvature="0"
           id="path5023"
           style="font-size:85px;letter-spacing:8px;word-spacing:8px"
           d="m -168.93994,373.00933 c -2.40881,-1.9002 -4.31052,-4.24371 -5.70512,-7.03055 l 56.63029,-28.33748 c 2.93996,-1.47108 6.05071,-1.99796 9.33226,-1.58064 3.28161,0.41741 6.2657,1.66431 8.952274,3.74072 2.435156,1.69761 4.463248,3.85122 6.084283,6.46082 1.395912,2.27952 2.651411,4.47166 3.766501,6.57641 0.506896,1.013 0.93794,1.87441 1.293133,2.58422 1.267606,2.53322 2.51015,5.33324 3.727634,8.40005 2.00387,5.01707 2.359887,9.52731 1.068054,13.53072 -0.12512,0.50738 -0.264176,0.98885 -0.417169,1.44441 -1.492745,4.48685 -4.2666,7.74481 -8.321575,9.7739 l -56.630295,28.33748 c -1.47104,-2.93995 -2.2071,-5.9934 -2.20818,-9.16037 0.0504,-2.17942 0.42389,-4.28313 1.12038,-6.31113 0.69663,-2.02804 1.74766,-3.85296 3.15308,-5.47478 1.40556,-1.62185 3.07178,-2.91488 4.99867,-3.87911 l 38.53839,-19.2844 c 1.21558,-0.60825 2.00067,-1.50871 2.35525,-2.70138 0.25333,-1.14003 0.101,-2.26757 -0.45698,-3.38262 l -3.34659,-6.68791 -0.95076,-2.0913 -0.0765,0.0383 c 3e-5,3e-5 -0.0127,-0.0255 -0.0383,-0.0765 -0.55792,-1.11501 -1.43265,-1.84964 -2.62419,-2.20388 -1.19147,-0.35419 -2.36948,-0.23994 -3.53404,0.34275 l -38.31105,19.17064 c -2.93985,1.47113 -6.06974,1.99164 -9.38969,1.56152 -3.31978,-0.4301 -6.32301,-1.68338 -9.0097,-3.75984 z" />
        <path
           inkscape:connector-curvature="0"
           id="path5025"
           style="font-size:85px;letter-spacing:8px;word-spacing:8px"
           d="m -157.46232,289.06454 28.94561,-30.8293 c 2.23366,2.0792 3.85004,4.58248 4.84914,7.50985 0.99913,2.92747 1.23349,5.90779 0.70308,8.94096 -0.53038,3.03326 -1.83515,5.66669 -3.91431,7.90029 l -18.82491,20.03749 c 0.49428,0.92092 0.88697,1.89912 1.17807,2.9346 l 12.84794,-3.61231 c 4.52822,-1.27313 8.87462,-0.62602 13.03921,1.94132 4.1646,2.56737 6.94479,6.33323 8.34056,11.29759 l -62.02472,17.43879 c -4.52646,1.27266 -8.86299,0.60796 -13.00958,-1.99411 -4.14644,-2.60209 -6.90986,-6.35784 -8.29027,-11.26727 l 32.81281,-9.22561 -29.34243,-7.64271 c -4.57119,-1.18655 -7.86162,-3.57259 -9.87129,-7.15814 -2.0095,-3.5855 -2.3847,-7.85105 -1.12563,-12.79665 l 40.87751,10.66979 c 0.59152,-1.46146 1.52792,-2.84299 2.80921,-4.14458 z" />
        <path
           inkscape:connector-curvature="0"
           id="path5027"
           style="font-size:85px;letter-spacing:8px;word-spacing:8px"
           d="m -176.28526,200.02697 c 3.22401,-4.72301 7.99693,-7.36453 14.31878,-7.92459 l 7.11083,-0.62988 c 2.48399,-0.21998 5.02045,-0.004 7.6094,0.64756 2.58898,0.65179 5.03876,1.65787 7.34935,3.01823 2.3106,1.36047 4.25329,3.22223 5.82805,5.58527 1.57477,2.36314 2.48964,4.9839 2.74461,7.8623 l 1.44014,16.25775 c 0.28503,3.21781 -0.25727,6.0818 -1.62692,8.59198 2.23078,2.70344 3.5237,6.05937 3.87878,10.06781 l -62.99492,5.58017 c -4.74048,0.41992 -8.89437,-0.71993 -12.46168,-3.41954 -3.56717,-2.69961 -5.65019,-6.46906 -6.24908,-11.30836 -0.0199,-0.22565 -0.0399,-0.4513 -0.06,-0.67698 l -1.11009,-12.5318 c -0.30982,-3.49854 0.30456,-6.99434 1.84313,-10.48742 1.53874,-3.49301 3.83493,-6.46983 6.88858,-8.93046 3.05379,-2.46055 6.44276,-3.85579 10.16692,-4.18574 2.70968,-0.23997 4.97881,-0.31293 6.80739,-0.21889 1.82869,0.0941 3.01878,0.20183 3.57026,0.32306 0.55159,0.12133 1.4257,0.51308 2.62232,1.17525 1.19673,0.66227 1.97143,1.0637 2.32411,1.20428 z m -18.77751,20.17885 1.05744,11.93751 16.51097,-1.46256 -1.09498,-12.36127 c -0.13484,-1.52273 -0.78597,-2.7732 -1.95339,-3.75142 -1.16732,-0.97815 -2.51324,-1.39972 -4.03779,-1.26471 l -5.58892,0.49507 c -1.46586,0.12989 -2.68165,0.84912 -3.64739,2.15771 -0.9656,1.30866 -1.38092,2.72521 -1.24594,4.24967 z m 41.23082,-12.35535 -4.40293,0.39002 c -1.80524,0.15995 -3.32527,0.97732 -4.5601,2.4521 -1.23477,1.47486 -1.71867,3.08238 -1.45171,4.82258 l 1.22979,13.88317 17.01999,-1.50765 c 0.11199,-0.01 0.30922,-0.0274 0.59171,-0.0524 l -1.22979,-13.88317 c -0.21689,-1.80192 -1.01886,-3.30986 -2.40592,-4.52383 -1.38702,-1.21389 -2.98403,-1.74082 -4.79104,-1.5808 z" />
        <path
           inkscape:connector-curvature="0"
           id="path5029"
           style="font-size:85px;letter-spacing:8px;word-spacing:8px"
           d="m -199.92859,108.97394 c 2.87759,-1.48222 5.89538,-2.06796 9.05338,-1.75723 l 47.54131,4.67884 c 4.62438,0.45517 8.36189,2.54548 11.21256,6.27093 2.85067,3.72557 4.25722,8.09221 4.21965,13.09994 -0.023,3.12909 -0.37025,8.10552 -1.04182,14.92931 -0.27761,2.82077 -0.71844,5.85221 -1.3225,9.09434 -0.97817,5.31316 -3.08066,9.32012 -6.30748,12.02089 -1.13751,1.14093 -2.29209,1.88137 -3.46374,2.22133 -2.93602,1.47654 -5.98307,2.0594 -9.14114,1.74859 l -47.54132,-4.67883 c -4.6243,-0.4551 -8.34762,-2.54401 -11.16996,-6.26674 -2.8222,-3.7227 -4.21455,-8.08794 -4.17705,-13.09575 0.023,-3.12902 0.19552,-6.32936 0.51742,-9.60105 0.62711,-6.37115 1.24274,-11.17868 1.84689,-14.4226 0.97825,-5.31308 3.08074,-9.32004 6.30748,-12.02089 1.13759,-1.14086 2.29303,-1.88121 3.46632,-2.22108 z m 49.44116,20.06968 -37.1352,-3.6547 c -1.37657,0.0922 -2.51525,0.52099 -3.41603,1.28637 -0.90068,0.76547 -1.41769,1.8254 -1.55105,3.17979 l -1.48381,14.2029 c -0.13307,1.35275 0.18168,2.49367 0.94425,3.42276 0.76269,0.92916 1.81013,1.5731 3.14233,1.93182 l 37.13519,3.65471 c 1.37493,-0.0923 2.51318,-0.52113 3.41475,-1.2865 0.90161,-0.76531 1.41896,-1.82434 1.55208,-3.17709 l 1.48123,-14.20315 -0.0826,-0.008 c 0.13331,-1.35439 -0.16759,-2.49482 -0.90269,-3.42128 -0.73508,-0.92637 -1.76789,-1.56887 -3.09844,-1.9275 z" />
        <path
           inkscape:connector-curvature="0"
           id="path5031"
           style="font-size:85px;letter-spacing:8px;word-spacing:8px"
           d="m -169.22762,30.842804 c -4.54205,-1.426432 -7.90861,-4.324895 -10.09966,-8.695399 -2.19095,-4.370346 -2.56491,-8.853007 -1.12189,-13.4479969 l 60.01173,18.8474049 c 4.59489,1.443156 7.98784,4.34991 10.17886,8.72027 2.19099,4.37049 2.5735,8.825928 1.14753,13.366328 l -5.91975,-1.859169 -50.98129,17.93437 30.73469,9.652601 c 4.54211,1.426527 7.9163,4.253071 10.12257,8.47964 2.20627,4.226603 2.5876,8.638169 1.144,13.234712 l -60.09092,-18.872276 c -4.59484,-1.44306 -7.99143,-4.292048 -10.18978,-8.546972 -2.19822,-4.254862 -2.58437,-8.652534 -1.15846,-13.19303 l 54.11846,-16.859382 z" />
        <path
           inkscape:connector-curvature="0"
           id="path5033"
           style="font-size:85px;letter-spacing:8px;word-spacing:8px"
           d="m -105.52698,11.035607 c -2.34973,-0.204997 -4.54012,-0.872489 -6.57118,-2.0024777 l -39.66431,-22.0673533 c -0.0498,-0.02771 -0.0924,-0.06771 -0.12767,-0.120006 -0.0352,-0.05222 -0.0528,-0.07836 -0.0529,-0.07839 l -0.0416,0.0748 c -4.35822,-2.424707 -7.19926,-5.594424 -8.52313,-9.509162 -1.32374,-3.91465 -0.98281,-7.907484 1.02279,-11.978515 l 16.61294,-29.86044 3.93742,2.190593 c 3.66468,2.038917 6.03639,4.914868 7.11513,8.627861 1.07881,3.713143 0.54371,7.500981 -1.6053,11.363526 l -1.7817,-0.991253 -5.66124,10.175626 c -0.48017,1.094404 -0.56364,2.26353 -0.25043,3.507383 0.3133,1.243955 0.93429,2.254866 1.86297,3.032736 0.22097,0.18629 0.43042,0.33448 0.62835,0.444572 l 4.82826,2.686219 c 0.198,0.110184 0.43436,0.210016 0.70906,0.299498 l 26.07037,14.504322 c 1.25042,0.4344827 2.43422,0.4924805 3.55139,0.1739936 1.11718,-0.3184276 1.99231,-1.0466202 2.6254,-2.1845796 l 8.844347,-15.897007 -10.547377,-5.868065 c -0.4458,-0.247969 -0.90191,-0.534379 -1.36833,-0.85923 -2.3847,2.888477 -5.19434,4.616324 -8.4289,5.183546 -3.23454,0.56732 -6.68338,-0.168041 -10.34654,-2.206086 l 8.14063,-14.632137 c 0.74409,-1.33734 1.59204,-2.454183 2.54385,-3.350533 0.95184,-0.896212 1.86161,-1.54082 2.7293,-1.933826 0.86772,-0.392863 1.85339,-0.590548 2.95701,-0.593055 1.10364,-0.0024 2.07637,0.08465 2.91819,0.261035 0.84183,0.17653 1.82933,0.499334 2.96248,0.968414 1.133159,0.469221 2.002428,0.888031 2.607811,1.25643 0.60538,0.368539 1.396427,0.840798 2.373145,1.416781 0.976711,0.576118 1.61392,0.946958 1.911631,1.11252 l 10.653103,6.024842 c 1.733322,0.964409 3.207621,2.189829 4.422903,3.676266 1.215241,1.486551 2.103371,3.066614 2.664393,4.740192 0.560975,1.673683 0.844774,3.436504 0.851397,5.288467 0.0066,1.852057 -0.268378,3.628563 -0.824859,5.329521 L -88.74555,2.3744291 c -2.094147,3.1807137 -4.861243,5.5328365 -8.301297,7.0563756 -2.846643,1.2679423 -5.673353,1.8028753 -8.480133,1.6048023 z" />
        <path
           inkscape:connector-curvature="0"
           id="path5035"
           style="font-size:85px;letter-spacing:8px;word-spacing:8px"
           d="m -41.606405,-125.27606 41.14175366,9.78008 c -0.69298666,2.97188 -2.06088276,5.61914 -4.10369226,7.94177 -2.0428871,2.32271 -4.5119565,4.00822 -7.4072154,5.05651 -2.895322,1.04837 -5.828884,1.22607 -8.800695,0.53309 l -26.745898,-6.36674 c -0.55314,0.88681 -1.206495,1.71398 -1.960069,2.4815 l 9.523493,9.34994 c 3.356508,3.295373 4.956665,7.387977 4.800475,12.277824 -0.156206,4.88988 -2.040687,9.174722 -5.653448,12.854541 l -45.975613,-45.137785 c -3.355234,-3.29409 -4.935215,-7.38687 -4.739948,-12.27838 0.195363,-4.89139 2.079413,-9.15666 5.652154,-12.79583 l 24.322391,23.87915 -7.962123,-29.25737 c -1.243951,-4.55591 -0.810307,-8.5972 1.300933,-12.1239 2.111289,-3.52652 5.625332,-5.97339 10.542139,-7.34063 l 11.072587,40.77025 c 1.56209,-0.21364 3.226347,-0.0883 4.992776,0.37598 z" />
        <path
           inkscape:connector-curvature="0"
           id="path5037"
           style="font-size:85px;letter-spacing:8px;word-spacing:8px"
           d="m 6.2354059,-202.07947 52.9938781,46.21988 c -3.203318,3.62653 -7.138101,5.68904 -11.804363,6.18753 -4.666338,0.49856 -8.674621,-0.70774 -12.02486,-3.61888 l -2.890923,-2.64686 -1.42092,-1.28836 -13.510054,9.45512 0.725972,1.77472 1.426642,3.67165 c 1.586321,4.14563 1.358326,8.31672 -0.683983,12.51327 -2.04233,4.19656 -5.338971,7.19502 -9.8899317,8.99538 l -25.2065643,-65.66704 c -1.582642,-3.94126 -1.443077,-7.8436 0.418696,-11.70704 0.98825,-2.14375 2.422774,-3.87382 4.303576,-5.19021 1.8808421,-1.31623 4.0209428,-2.08789 6.4203084,-2.31499 4.2206033,-0.39336 7.9347751,0.81192 11.1425265,3.61583 z m 5.5714521,41.02228 8.70492,-6.0922 -18.937032,-17.87014 z" />
        <path
           inkscape:connector-curvature="0"
           id="path5039"
           style="font-size:85px;letter-spacing:8px;word-spacing:8px"
           d="m 49.233387,-239.20529 41.721773,-19.13558 c 2.126029,4.63559 2.355763,9.11249 0.689202,13.43073 -1.666609,4.31841 -4.68875,7.48148 -9.066432,9.48922 l -4.557682,2.09037 18.780875,40.9484 c 1.983998,4.32586 2.0115,8.77043 0.0825,13.33371 -1.929054,4.56333 -5.23646,7.91954 -9.922226,10.06866 l -25.938739,-56.55487 -20.088697,9.21362 c -2.102957,-4.58513 -2.339892,-9.04351 -0.710805,-13.37515 1.629141,-4.33151 4.632547,-7.50121 9.010226,-9.50911 z" />
        <path
           inkscape:connector-curvature="0"
           id="path5041"
           style="font-size:85px;letter-spacing:8px;word-spacing:8px"
           d="m 117.55452,-249.12052 c -1.36241,-4.50208 -0.79183,-8.87821 1.71172,-13.1284 2.50357,-4.25004 6.22325,-7.12192 11.15906,-8.61565 l 18.34157,60.61014 c 1.3619,4.50051 0.7912,8.87623 -1.7121,13.12716 -2.50332,4.25095 -6.22288,7.12325 -11.15868,8.6169 z" />
        <path
           inkscape:connector-curvature="0"
           id="path5043"
           style="font-size:85px;letter-spacing:8px;word-spacing:8px"
           d="m 201.02532,-267.18899 c -0.71671,-4.76248 0.50691,-9.10088 3.67085,-13.01521 3.16387,-3.91416 7.35197,-6.26345 12.56433,-7.04789 l 9.44847,62.78887 c 0.7251,4.81902 -0.4947,9.18569 -3.6594,13.10005 -3.16482,3.91438 -7.3525,6.26361 -12.56305,7.0477 l -4.78136,-31.77407 -21.77012,3.27597 2.17587,14.45955 c 0.72514,4.81901 -0.50834,9.18774 -3.70044,13.10622 -3.19214,3.9185 -7.36614,6.26567 -12.52201,7.04152 l -6.9692,-46.31313 c -0.21425,-0.65674 -0.37194,-1.32116 -0.47308,-1.99327 l 0.1693,-0.0255 -2.18823,-14.54163 c -0.71666,-4.76249 0.50738,-9.10096 3.67214,-13.0154 3.16476,-3.9143 7.35244,-6.26353 12.56305,-7.0477 l 4.78098,31.7715 21.77012,-3.27596 z" />
        <path
           inkscape:connector-curvature="0"
           id="path5045"
           style="font-size:85px;letter-spacing:8px;word-spacing:8px"
           d="m 289.02563,-276.1236 14.3169,68.84515 c -4.74344,0.95538 -9.12514,0.22246 -13.14511,-2.19877 -4.02007,-2.42122 -6.48593,-5.80368 -7.39758,-10.14738 l -0.70524,-3.85563 -0.35423,-1.88505 -16.47818,-0.62487 -0.49339,1.8529 -1.08075,3.78791 c -1.23979,4.26212 -3.94091,7.44864 -8.10336,9.55957 -4.16248,2.11093 -8.60092,2.50938 -13.31536,1.19535 l 19.57521,-67.55991 c 1.11927,-4.09702 3.58759,-7.12277 7.40496,-9.07727 2.08247,-1.11158 4.27073,-1.62392 6.5648,-1.53701 2.294,0.0871 4.46569,0.76475 6.51509,2.03302 3.60129,2.23582 5.83337,5.43982 6.69624,9.61199 z m -20.33793,36.05881 10.61737,0.40262 -4.29836,-25.68029 z" />
        <path
           inkscape:connector-curvature="0"
           id="path5047"
           style="font-size:85px;letter-spacing:8px;word-spacing:8px"
           d="m 379.29347,-254.65099 c 1.11158,-4.62919 3.77234,-8.1866 7.98228,-10.67223 4.2098,-2.48551 8.65626,-3.16602 13.3394,-2.04152 l -14.68736,61.16301 c -1.12464,4.68304 -3.79186,8.26735 -8.00167,10.75294 -4.20994,2.48556 -8.62865,3.17273 -13.25616,2.0615 l 1.44881,-6.03331 -21.38849,-49.63131 -7.52206,31.32432 c -1.11166,4.62925 -3.70015,8.18934 -7.76546,10.68028 -4.06534,2.49094 -8.44037,3.17392 -13.12509,2.04896 l 14.70674,-61.24372 c 1.12455,-4.68299 3.73389,-8.26697 7.82803,-10.75196 4.09408,-2.48484 8.45492,-3.17168 13.08252,-2.06052 l 20.53118,52.83481 z" />
        <path
           inkscape:connector-curvature="0"
           id="path5049"
           style="font-size:85px;letter-spacing:8px;word-spacing:8px"
           d="m 501.22773,-200.24382 c 2.41881,-4.10053 6.0049,-6.7225 10.75828,-7.86592 4.7532,-1.14335 9.20396,-0.49154 13.35228,1.95543 l -31.95909,54.17793 c -2.44708,4.1482 -6.04722,6.794 -10.80046,7.93741 -4.75335,1.14336 -9.17953,0.50605 -13.27855,-1.91193 l 3.15255,-5.34429 -5.91223,-53.71945 -16.36769,27.74694 c -2.41891,4.10057 -5.93668,6.74627 -10.55332,7.93713 -4.61667,1.19085 -8.99986,0.56234 -13.14957,-1.88554 l 32.00128,-54.24942 c 2.44696,-4.14817 5.99167,-6.81061 10.63413,-7.98734 4.64238,-1.1766 9.01312,-0.55593 13.11225,1.86202 l 4.15415,56.53131 z" />
        <path
           inkscape:connector-curvature="0"
           id="path5051"
           style="font-size:85px;letter-spacing:8px;word-spacing:8px"
           d="m 506.07761,-133.74009 c 0.72848,-2.24334 1.87175,-4.22735 3.42979,-5.95204 l 30.42682,-33.68137 c 0.0382,-0.0423 0.0868,-0.0748 0.14565,-0.0974 0.0588,-0.0225 0.0882,-0.0338 0.0883,-0.0339 l -0.0635,-0.0574 c 3.34322,-3.70084 7.07095,-5.75575 11.18319,-6.16475 4.11212,-0.4089 7.92583,0.82177 11.44115,3.69201 l 25.35631,22.90618 -3.02043,3.3435 c -2.81126,3.11189 -6.14715,4.77561 -10.00766,4.99118 -3.86067,0.21559 -7.43095,-1.15814 -10.71085,-4.12119 l 1.36675,-1.51295 -8.64074,-7.80581 c -0.95828,-0.71412 -2.07864,-1.05854 -3.36108,-1.03325 -1.28255,0.0253 -2.40727,0.40292 -3.37416,1.13275 -0.23124,0.17338 -0.42276,0.34411 -0.57457,0.51219 l -3.7038,4.09997 c -0.15191,0.16813 -0.30237,0.37596 -0.45137,0.62348 l -19.99879,22.13793 c -0.70471,1.12059 -1.02761,2.26097 -0.96868,3.42116 0.0589,1.16018 0.57146,2.17673 1.53778,3.04965 l 13.49911,12.19472 8.09098,-8.95641 c 0.34192,-0.37857 0.72362,-0.75853 1.1451,-1.13989 -2.27778,-2.97352 -3.32908,-6.0999 -3.1539,-9.37915 0.17508,-3.27925 1.66765,-6.47416 4.47772,-9.58476 l 12.42504,11.22443 c 1.1356,1.02593 2.03299,2.10345 2.69217,3.23256 0.65904,1.12909 1.0824,2.16058 1.27007,3.09446 0.18753,0.93386 0.15835,1.93874 -0.0875,3.01462 -0.24604,1.07586 -0.54971,2.00407 -0.911,2.78461 -0.36144,0.78052 -0.89817,1.67004 -1.61021,2.66858 -0.71217,0.99851 -1.31585,1.75125 -1.81102,2.25821 -0.49532,0.50692 -1.13347,1.17141 -1.91446,1.99347 -0.78113,0.82202 -1.28585,1.35944 -1.51415,1.61226 l -8.26753,9.02415 c -1.32971,1.471853 -2.85546,2.632592 -4.57724,3.482222 -1.72189,0.849564 -3.46127,1.359365 -5.21817,1.529403 -1.757,0.16997 -3.53847,0.04981 -5.34442,-0.360469 -1.80604,-0.410352 -3.47511,-1.078009 -5.00723,-2.002974 l -19.62056,-17.840032 c -2.6279,-2.75617 -4.29704,-5.98158 -5.00741,-9.67624 -0.59486,-3.05896 -0.48,-5.93354 0.34459,-8.62377 z" />
        <path
           inkscape:connector-curvature="0"
           id="path5053"
           style="font-size:85px;letter-spacing:8px;word-spacing:8px"
           d="m 660.47379,-48.21889 c -0.68096,3.420041 -2.15124,6.6538 -4.41085,9.701287 -2.25978,3.047452 -5.25495,5.756536 -8.9855,8.127259 l -0.21456,0.136343 c -4.01678,2.552463 -7.94658,4.159961 -11.78939,4.822498 -3.84294,0.662476 -7.51121,0.542989 -11.00481,-0.358464 -3.4937,-0.901512 -6.74245,-2.579971 -9.74624,-5.035381 -3.00389,-2.455459 -5.66055,-5.500328 -7.97,-9.134614 l -5.10591,-8.03488 -0.5736,0.364509 c -5.21358,3.313033 -10.6721,4.549409 -16.37558,3.709132 -5.70351,-0.8403 -9.96878,-3.484813 -12.7958,-7.933545 l 52.58577,-33.416577 c 4.11298,-2.613674 8.73006,-3.298434 13.85124,-2.054281 5.12104,1.244215 8.89755,3.779789 11.32954,7.606729 l 6.19944,9.755702 c 2.34,3.682481 3.92962,7.37213 4.76884,11.068955 0.83905,3.696833 0.91818,7.255272 0.23741,10.675328 z m -24.74723,2.181425 0.1423,-0.09043 c 2.96576,-1.884696 4.68958,-4.138298 5.17145,-6.760814 0.48174,-2.622521 -0.2197,-5.416692 -2.10432,-8.382522 l -4.83183,-7.60358 -18.07958,11.488992 4.92366,7.748077 c 1.82342,2.869487 4.04868,4.627702 6.67579,5.27465 2.627,0.646925 5.32784,0.0888 8.10253,-1.674372 z" />
        <path
           inkscape:connector-curvature="0"
           id="path5055"
           style="font-size:85px;letter-spacing:8px;word-spacing:8px"
           d="m 666.98278,-13.040509 c 4.28688,-1.935854 8.70005,-1.938755 13.23952,-0.0087 4.53932,1.930098 7.87019,5.2450715 9.99262,9.9449317 L 632.50194,22.957485 c -4.28538,1.93515 -8.69816,1.937873 -13.23833,0.0082 -4.54019,-1.929734 -7.87146,-5.24453 -9.9938,-9.944398 z" />
        <path
           inkscape:connector-curvature="0"
           id="path5057"
           style="font-size:85px;letter-spacing:8px;word-spacing:8px"
           d="m 706.02107,40.119813 -58.6241,17.56892 9.29716,31.022844 c -4.93983,1.480348 -9.64431,1.130039 -14.11345,-1.050929 -4.46917,-2.181062 -7.37867,-5.523632 -8.72849,-10.027722 l -9.76109,-32.57088 c 0,-4e-6 0.0314,0.0055 0.0943,0.01642 0.0629,0.01095 0.0943,0.01642 0.0943,0.01642 l -0.0246,-0.082 59.92614,-17.959125 c 4.55874,-1.3662 8.9683,-0.765031 13.22872,1.803508 4.26027,2.568564 7.13063,6.322737 8.61111,11.262532 z" />
        <path
           inkscape:connector-curvature="0"
           id="path5059"
           style="font-size:85px;letter-spacing:8px;word-spacing:8px"
           d="m 703.63479,100.60499 c 4.64489,-0.741568 8.90378,0.41509 12.7767,3.46999 3.87277,3.05489 6.21569,7.12853 7.02878,12.2209 l -62.53267,9.98344 c -4.64326,0.74128 -8.90172,-0.41545 -12.77541,-3.47019 -3.87371,-3.05478 -6.21706,-7.12834 -7.03006,-12.2207 z" />
        <path
           inkscape:connector-curvature="0"
           id="path5061"
           style="font-size:85px;letter-spacing:8px;word-spacing:8px"
           d="m 721.2578,194.96532 c -2.36414,2.56344 -5.30472,4.55641 -8.82176,5.9789 -3.51716,1.42237 -7.48545,2.1726 -11.90487,2.25069 l -0.25417,0.004 c -4.75842,0.084 -8.94995,-0.59311 -12.57459,-2.0312 -3.62473,-1.43822 -6.69271,-3.45264 -9.20397,-6.04329 -2.51131,-2.59075 -4.40853,-5.7168 -5.69166,-9.37814 -1.28317,-3.66143 -1.96276,-7.6448 -2.03875,-11.95012 l -0.16807,-9.51847 -0.67952,0.012 c -6.17622,0.10903 -11.47879,-1.68174 -15.90772,-5.37232 -4.42895,-3.6906 -6.68994,-8.17098 -6.783,-13.44115 l 62.29544,-1.09995 c 4.87242,-0.086 9.16936,1.73675 12.89083,5.46839 3.72132,3.73161 5.62204,7.86422 5.70217,12.39783 l 0.20406,11.55703 c 0.077,4.36238 -0.49018,8.33966 -1.70139,11.93185 -1.21136,3.59209 -2.99904,6.66991 -5.36303,9.23346 z m -22.25512,-11.04055 0.16859,-0.003 c 3.51339,-0.0621 6.15932,-1.08645 7.93778,-3.07312 1.77834,-1.98676 2.63653,-4.73683 2.57455,-8.25025 l -0.15904,-9.00754 -21.41787,0.37818 0.16207,9.17871 c 0.06,3.3993 1.04224,6.05981 2.94677,7.98153 1.90445,1.92164 4.50016,2.85346 7.78715,2.79547 z" />
        <path
           inkscape:connector-curvature="0"
           id="path5063"
           style="font-size:85px;letter-spacing:8px;word-spacing:8px"
           d="m 708.52305,228.27085 c 4.66845,0.57483 8.43993,2.86656 11.31444,6.87518 2.87437,4.00858 3.99649,8.57198 3.36634,13.69021 l -62.84992,-7.73892 c -4.66681,-0.57467 -8.43786,-2.86634 -11.31316,-6.87503 -2.8753,-4.00872 -3.99784,-8.57217 -3.36762,-13.69037 z" />
        <path
           inkscape:connector-curvature="0"
           id="path5065"
           style="font-size:85px;letter-spacing:8px;word-spacing:8px"
           d="m 689.02123,320.61336 c 4.58041,1.298 8.02722,4.10054 10.34045,8.40763 2.31311,4.30693 2.81312,8.77729 1.50002,13.41108 l -60.51853,-17.1505 c -4.63369,-1.31324 -8.10713,-4.12332 -10.42031,-8.43027 -2.31316,-4.30708 -2.82095,-8.74998 -1.52336,-13.32872 l 5.96974,1.69178 50.45621,-19.36247 -30.99425,-8.78354 c -4.58047,-1.2981 -8.03289,-4.02853 -10.35727,-8.19132 -2.32438,-4.16281 -2.82976,-8.5619 -1.51613,-13.19726 l 60.59839,17.17314 c 4.63364,1.31314 8.10909,4.06538 10.42635,8.25673 2.31713,4.19129 2.82693,8.57635 1.52941,13.15519 l -53.62239,18.37622 z" />
        <path
           inkscape:connector-curvature="0"
           id="path5067"
           style="font-size:85px;letter-spacing:8px;word-spacing:8px"
           d="m 659.69483,403.5321 -68.42631,-16.20087 c 1.14438,-4.70143 3.66476,-8.35986 7.56115,-10.97532 3.89643,-2.61555 8.00505,-3.41602 12.32587,-2.4014 l 3.79125,0.9948 1.85758,0.47781 7.5477,-14.66127 -1.46932,-1.23198 -2.97321,-2.58386 c -3.33536,-2.92884 -5.07728,-6.72563 -5.22577,-11.39039 -0.14849,-4.66479 1.37113,-8.85398 4.55886,-12.56759 l 52.90229,46.356 c 3.23687,2.74972 4.9318,6.26753 5.08481,10.55343 0.12455,2.35729 -0.33853,4.5565 -1.38924,6.59766 -1.05082,2.04102 -2.58479,3.72103 -4.60191,5.04003 -3.55106,2.31477 -7.39898,2.97908 -11.54375,1.99295 z m -24.04524,-33.70008 -4.8632,9.44669 25.08254,6.98708 z" />
        <path
           inkscape:connector-curvature="0"
           id="path5069"
           style="font-size:85px;letter-spacing:8px;word-spacing:8px"
           d="m 585.94449,459.41427 c -5.30435,-0.0473 -10.09903,-1.70031 -14.38406,-4.95902 l -0.54096,-0.4114 c -5.27745,-4.0136 -8.36716,-9.33546 -9.26915,-15.96562 -0.90194,-6.63024 0.65385,-12.58407 4.66736,-17.86151 l 16.56763,-21.78506 c 4.05927,3.08709 6.47532,7.02433 7.24815,11.81173 0.77282,4.78737 -0.26445,9.05309 -3.11182,12.79718 l -6.22601,8.18668 c -0.95993,1.26221 -1.32642,2.72756 -1.09945,4.39605 0.22698,1.66842 0.97159,2.98261 2.23383,3.9426 l 0.54096,0.4114 c 1.30905,0.99549 2.79745,1.37951 4.46522,1.15206 1.66776,-0.22755 2.98162,-0.97242 3.94156,-2.23461 l 3.4985,-4.60024 c 2.36687,-3.11229 5.25886,-5.48734 8.676,-7.12516 3.41709,-1.63789 7.00612,-2.44977 10.76708,-2.43565 5.34974,0.0817 10.14442,1.73476 14.38405,4.95902 l 0.54096,0.4114 c 5.27743,4.0135 8.37578,9.32401 9.29506,15.93155 0.91918,6.60743 -0.64524,12.57262 -4.69327,17.89558 l -15.2816,20.09404 c -4.0593,-3.08718 -6.48372,-7.01341 -7.27327,-11.77869 -0.7896,-4.76544 0.25657,-9.04286 3.13851,-12.83228 l 4.93841,-6.4936 c 0.9955,-1.3091 1.37123,-2.78589 1.12718,-4.43037 -0.24412,-1.64458 -0.99797,-2.94734 -2.26155,-3.90828 l -0.54097,-0.4114 c -1.30769,-0.99454 -2.7755,-1.38136 -4.40342,-1.16046 -1.62797,0.2208 -2.93971,0.98574 -3.93522,2.29483 l -3.4985,4.60024 c -2.33235,3.06677 -5.22646,5.42174 -8.68234,7.06494 -3.4559,1.64306 -7.06552,2.45775 -10.82887,2.44405 z" />
      </g>
      <path
         transform="matrix(0,2.0939577,-2.2248303,0,1479.4426,-703.60911)"
         d="m 608.60378,547.26245 a 187.68733,176.6469 0 1 1 -375.37467,0 187.68733,176.6469 0 1 1 375.37467,0 z"
         sodipodi:ry="176.6469"
         sodipodi:rx="187.68733"
         sodipodi:cy="547.26245"
         sodipodi:cx="420.91644"
         id="path2985"
         style="color:#000000;fill:none;stroke:none;stroke-width:0.04669562;marker:none;visibility:visible;display:inline;overflow:visible;enable-background:accumulate"
         sodipodi:type="arc" />
      <path
         transform="matrix(0,-2.5101355,-2.6670194,0,1717.1447,1224.5321)"
         d="m 608.60378,547.26245 a 187.68733,176.6469 0 1 1 -375.37467,0 187.68733,176.6469 0 1 1 375.37467,0 z"
         sodipodi:ry="176.6469"
         sodipodi:rx="187.68733"
         sodipodi:cy="547.26245"
         sodipodi:cx="420.91644"
         id="path2985-8"
         style="color:#000000;fill:none;stroke:none;stroke-width:0.03895353;marker:none;visibility:visible;display:inline;overflow:visible;enable-background:accumulate"
         sodipodi:type="arc" />
    </g>
  </g>
</svg>
